<?xml version="1.0" encoding="utf-8"?>
<!-- Generator: Adobe Illustrator 15.1.0, SVG Export Plug-In . SVG Version: 6.00 Build 0)  -->
<!DOCTYPE svg PUBLIC "-//W3C//DTD SVG 1.1//EN" "http://www.w3.org/Graphics/SVG/1.1/DTD/svg11.dtd">
<svg version="1.1" id="Layer_1" xmlns="http://www.w3.org/2000/svg" xmlns:xlink="http://www.w3.org/1999/xlink" x="0px" y="0px"
	 width="300px" height="468px" viewBox="0 0 300 468" enable-background="new 0 0 300 468" xml:space="preserve">
<g>
	<path fill-rule="evenodd" clip-rule="evenodd" fill="#FFFFFF" d="M143.521,171.16c-1.637-0.273-2.76-2.351-4.8-3.12
		c-5.158-1.943-13.542-2.003-21.6-3.6c-8.712-1.727-12.51-7.032-20.4-6.48c-3.625,0.253-6.418,2.6-8.88,4.56
		c1.754-5.518,6.316-9.87,14.64-9.36c3.993,0.245,7.614,2.108,11.76,3.36c3.735,1.128,7.957,1.87,12,2.88
		C134.168,161.381,145.077,162.935,143.521,171.16z"/>
	<path fill-rule="evenodd" clip-rule="evenodd" d="M221.761,167.561c1.319,4.12,1.192,9.688,1.2,15.12
		C217.475,180.564,219.059,171.572,221.761,167.561z"/>
	<path fill-rule="evenodd" clip-rule="evenodd" d="M229.2,329.081c1.109,1.53,1.43,3.851,2.641,5.279
		c-1.824,1.837-0.51,6.03-0.48,8.88c-2.993,0.323-4.674-2.968-4.8-5.52C226.409,334.664,228.903,331.457,229.2,329.081z"/>
	<path fill-rule="evenodd" clip-rule="evenodd" d="M261.36,339.881c-2.131,5.389-7.87,7.17-14.64,7.92
		c-0.88-4.117,1.649-6.803,2.399-10.08C252.618,339.022,257.175,339.267,261.36,339.881z"/>
	<path fill-rule="evenodd" clip-rule="evenodd" d="M228.961,422.921c2.35,4.132,1.447,11.719-0.24,15.84
		c0.123,0.837,1.567,0.353,2.399,0.48c0.711-0.422-0.919-0.498-0.72-1.2c2.235-2.645,3.288-6.472,4.08-10.561
		c-0.165-0.718,0.23-2.227,0.24-0.72c0.502,8.026-0.418,17.032-7.681,17.28c-3.252,0.111-5.514-1.475-8.399-2.4
		C223.831,437.151,228.401,432.041,228.961,422.921z"/>
	<path fill-rule="evenodd" clip-rule="evenodd" d="M-5.76-5C97.917-5,201.604-5,305.28-5c0,159.608,0,319.188,0,478.801
		c-103.756,0-207.525,0-311.28,0C-6,314.445-6,155.075-6-4.28C-6.021-4.621-6.04-4.959-5.76-5z M283.2,300.041
		c1.767,0.171,2.493-1.991,3.36-3.12c6.797-8.847,14.006-20.782,13.2-36.48c-0.915-17.825-9.471-28.347-21.601-35.04
		c-1.631-7.604-0.752-14.813,0.24-23.04c0.619-5.135,1.324-10.489,0.96-15.84c-0.251-3.701,0.08-6.997,0.48-10.8
		c0.519-4.924,0.953-10.936,0.72-16.08c-1.372-30.211-10.925-55.718-27.6-70.56c-1.214-1.08-3.188-2.08-3.601-3.12
		c-0.87-2.196-0.573-4.418-1.2-6.24c-1.289-3.748-3.253-6.584-5.52-9.36c-1.029-1.261-2.543-2.537-3.36-4.08
		c-1.411-2.666-1.825-5.773-2.88-8.4c-7.477-18.625-20.706-33.524-43.44-36.96c-12.874-9.353-29.912-20.9-53.52-15.84
		c-5.664-8.771-21.15-2.779-28.32,0.48c-4.684,2.129-9.167,4.657-13.2,7.2c-8.806,5.552-16.017,11.063-22.32,18.72
		C62.467,47.433,53.168,65.629,48,85.72c-17.521,1.798-26.433,15.328-30.72,30.96c-4.99,18.192,1.022,37.082,8.88,49.2
		c-8.364,3.568-13.551,11.327-17.04,20.4c-3.452,8.978-5.665,20.958-5.28,32.16C4.187,228.54,4.124,239.611,6.96,247
		c0.805,2.096,2.397,4.298,3.84,6.721c0.403,0.676,4.577,5.967,4.56,6.24c-0.02,0.329-2.011,1.819-2.64,2.64
		c-8.113,10.587-1.746,27.262,5.76,33.12c-5.906-0.189-11.027-1.944-14.88-4.08c-1.331-0.737-2.355-2.024-3.6-1.92
		c-0.954,1.083,0.781,2.169,1.44,2.88c2.491,2.685,6.003,5.119,9.36,6.48c1.2,2.239,3.083,3.797,3.36,6.96
		c0.488,0.631,1.593,0.646,2.4,0.96c7.613,9.026,18.028,15.252,34.56,15.359c2.826,6.282,6.574,16.897,5.76,28.08
		c-0.379,5.209-2.366,17.7-8.64,16.561c-2.748-0.499-3.857-5.148-3.12-7.92c0.446-1.678,2.063-2.757,1.68-3.841
		c-1.513-0.909-2.449,1.292-3.12,2.4c-2.972,4.912-1.456,12.184,3.12,13.92c7.801,2.96,13.468-4.956,15.6-10.56
		c1.083,1.401,1.44,4.115,1.44,6.479c0,3.817-0.331,10.131-2.16,13.92c-1.737,3.6-7.929,8.266-8.64,1.92
		c-0.146-1.299,1.095-3.731-0.72-4.079c-1.713,2.61-2.705,8.628,0.48,10.8c4.816,3.283,11.259-1.705,13.92-3.84
		c1.113,6.486,4.264,10.936,7.68,15.119c-3.962,8.843-6.91,18.014-6.24,28.801c0.535,8.609,4.198,16.304,8.64,21.84
		c4.75,5.92,11.25,9.112,18,12.72c2.804,1.498,5.378,3.356,9.36,3.601c5.887,0.36,13.77,0.05,18.24-2.88
		c0.403,1.116,0.583,2.456,1.44,3.119c-1.561-4.991,3.568-5.613,2.88-8.159c-19.111,1.255-16.009-30.091-10.8-43.681
		c2.639,6.063,10.906,15.214,18.72,16.08c9.015,1,8.571-7.721,5.52-12.24c-0.489-0.725-4.304-4.332-4.32-4.8
		c-0.008-0.224,1.883-0.984,0.72-1.2c-0.671,0.449-1.65,0.591-2.4,0.96c0.333,2.205,1.949,3.031,2.88,5.28
		c0.743,1.795,1.694,5.562-0.48,6c-1.332,0.27-3.741-2.111-5.04-3.36c-4.381-4.209-7.941-10.683-9.12-16.319
		c6.147-3.453,11.544-7.655,16.32-12.48c3.725,3.283,8.01,7.879,7.2,15.12c-0.188,1.678-1.278,3.02-0.96,4.8
		c4.995-2.295,8.089-8.396,7.2-15.6c-0.662-5.361-4.611-9.143-8.16-11.28c9.157-12.64,13.88-33.194,9.36-52.32
		c-0.823-3.481-2.881-6.899-3.36-9.84c-0.231-1.419,0.09-2.979,0-4.32c-0.758-11.31-6.495-20.228-11.04-28.319
		c-2.355-4.193-4.858-8.27-7.44-12.24c-2.586-3.977-6.043-7.931-8.16-11.76c-1.78-3.221-2.862-6.331-5.04-9.12
		c-2.035-2.606-4.64-4.81-6.72-7.681c-2.853-3.938-5.178-9.493-8.16-13.199c-1.128-1.401-2.686-2.546-3.36-3.841
		c-1.073-2.06-1.378-5.09-2.16-7.68c-1.556-5.151-3.271-9.927-5.52-14.4c-1.102-2.19-3.221-4.314-3.84-6.24
		c-0.732-2.278-0.665-5.27-1.44-7.92c-0.69-2.36-2.233-4.484-2.88-6.72c-0.616-2.129-0.538-4.998-0.96-7.44
		c-0.43-2.486-1.356-4.996-1.44-6.96c-0.143-3.339,0.808-6.959,1.2-10.56c1.208-11.083,1.896-21.206,3.12-32.4
		c14.581-1.924,15.944-18.348,22.08-29.04c1.516-2.641,5.049-7.518,8.16-7.2c1.165,0.119,2.687,1.789,4.08,2.88
		c3.572,2.797,8.692,7.154,14.88,6.48c0.937-0.102,1.772-0.834,2.64-0.96c0.863-0.125,1.803,0.309,2.64,0.24
		c1.459-0.12,2.823-0.967,4.32-1.2c4.345-0.675,8.902-0.584,12.72-3.12c4.991,2.865,13.411,0.866,18-0.96
		c8.112,3.743,16.064,5.881,20.64,13.2c3.584,5.732,4.71,14.143,9.6,18.24c0.959,0.803,2.824,2.175,4.561,1.44
		c-0.616-1.422-2.19-2.295-3.12-4.08c-1.104-2.118-1.607-4.778-1.92-7.68c2.174,1.985,4.839,3.481,7.2,5.28
		c4.29,8.515-3.901,16.475-1.2,24c-9.17-0.916-14.139,3.654-23.521,5.28c-8.926,1.547-19.369,3.207-19.199,12.48
		c2.084,0.017,3.069-1.796,4.56-2.64c4.959-2.809,11.93-2.093,18.48-3.36c9.161-1.772,15.386-10.587,25.439-8.4
		c-3.666-2.191-5.582-6.963-1.68-10.32c1.072,2.913,4.46,2.76,5.04,6c1.001,5.586-5.013,13.836-5.521,21.12
		c-0.518,7.428,3.144,10.155,7.921,12.48c-0.252,8.155-3.157,13.95-4.801,20.16c-0.928,3.506-1.468,7.082-2.64,10.32
		c-1.118,3.09-2.402,6.255-3.6,9.36c-1.207,3.126-2.176,6.521-3.601,9.359c-2.475,4.929-6.415,9.116-9.6,13.44
		c-3.224,4.377-6.75,8.816-9.601,13.44c-8.972,14.555-15.488,41.068-7.439,61.439c-3.546,7.414-6.825,15.453-6,26.16
		c0.792,10.285,6.139,18.971,10.319,25.44c-6.884,15.97,0.549,38.62,12,45.6c4.54,2.768,10.851,3.45,15.601,1.2
		c0.354,0.686,0.491,1.589,0.96,2.16c0-1.2,0-2.4,0-3.6c-10.388,1.618-15.241-4.244-18.24-10.801
		c4.229,2.744,10.72,5.743,17.521,4.32c0.265-1.55-3.612-2.304-3.601-3.6c3.639,0.762,7.3,1.5,9.84,3.359
		c0.433,11.656-1.682,25.486-12.239,25.681c-5.766,0.105-8.43-4.077-12-6.96c0.317,9.294,12.638,15.292,21.6,10.8
		c0.174,0.733-0.414,0.706-0.24,1.439c0.956-0.077,0.65-1.136,1.44-0.239c2.975,2.346,6.294,4.874,10.8,4.8
		c9.334-0.155,12.982-10.383,13.68-19.681c2.282,3.692,6.256,7.864,5.28,13.44c-0.901,5.154-7.272,6.276-13.439,6.72
		c-0.511,1.011-0.117,2.924-0.24,4.32c1.102-0.339,0.364-2.515,1.439-2.88c1.474,0.383,2.524,0.626,3.84,0.72
		c23.029,1.649,15.664-27.302,5.04-34.08c4.097-4.69,7.365-10.005,7.921-17.76c1.256-17.54-7.087-30.786-12.24-42.48
		c11.838-1.042,20.555-5.205,23.52-15.12c3.801,1.858,12.16,1.731,15.12,1.44c0.184-1.939-2.458-2.01-3.6-2.4
		c-4.481-1.531-8.816-3.806-10.8-6.72c2.277,1.723,4.912,3.087,8.399,3.6c-1.509-3.451-5.427-5.771-6.24-9.119
		c3.95,4.616,9.645,8.746,16.801,9.359c-1.212-1.812-3.471-2.599-5.28-3.84c-1.711-1.173-3.71-2.536-5.04-4.08
		c-6.45-7.484-1.192-16.695,3.36-23.28c3.176-4.595,6.518-8.861,8.88-12.96c0.498-0.269,0.508-0.259,0.239,0.24
		C285.433,295.729,282.821,298.438,283.2,300.041z M126.24,159.4c-4.043-1.01-8.265-1.752-12-2.88
		c-4.146-1.252-7.767-3.116-11.76-3.36c-8.324-0.509-12.886,3.843-14.64,9.36c2.462-1.96,5.254-4.307,8.88-4.56
		c7.89-0.552,11.688,4.753,20.4,6.48c8.059,1.597,16.442,1.657,21.6,3.6c2.041,0.769,3.164,2.846,4.8,3.12
		C145.077,162.935,134.168,161.381,126.24,159.4z"/>
	<path fill-rule="evenodd" clip-rule="evenodd" fill="#FFFFFF" d="M286.08,293.561c0.269-0.499,0.259-0.509-0.239-0.24
		c-2.362,4.099-5.704,8.365-8.88,12.96c-4.553,6.585-9.811,15.796-3.36,23.28c1.33,1.544,3.329,2.907,5.04,4.08
		c1.81,1.241,4.068,2.028,5.28,3.84c-7.156-0.613-12.851-4.743-16.801-9.359c0.813,3.348,4.731,5.668,6.24,9.119
		c-3.487-0.513-6.122-1.877-8.399-3.6c1.983,2.914,6.318,5.188,10.8,6.72c1.142,0.391,3.783,0.461,3.6,2.4
		c-2.96,0.291-11.319,0.418-15.12-1.44c-2.965,9.915-11.682,14.078-23.52,15.12c5.153,11.694,13.496,24.94,12.24,42.48
		c-0.556,7.755-3.824,13.069-7.921,17.76c10.624,6.778,17.989,35.729-5.04,34.08c-1.315-0.094-2.366-0.337-3.84-0.72
		c-1.075,0.365-0.338,2.541-1.439,2.88c0.123-1.396-0.271-3.31,0.24-4.32c6.167-0.443,12.538-1.565,13.439-6.72
		c0.976-5.576-2.998-9.748-5.28-13.44c-0.697,9.298-4.346,19.525-13.68,19.681c-4.506,0.074-7.825-2.454-10.8-4.8
		c-0.79-0.896-0.484,0.162-1.44,0.239c-0.174-0.733,0.414-0.706,0.24-1.439c-8.962,4.492-21.282-1.506-21.6-10.8
		c3.57,2.883,6.234,7.065,12,6.96c10.558-0.194,12.672-14.024,12.239-25.681c-2.54-1.859-6.201-2.598-9.84-3.359
		c-0.012,1.296,3.865,2.05,3.601,3.6c-6.801,1.423-13.291-1.576-17.521-4.32c2.999,6.557,7.853,12.419,18.24,10.801
		c0,1.199,0,2.399,0,3.6c-0.469-0.571-0.605-1.475-0.96-2.16c-4.75,2.25-11.061,1.567-15.601-1.2
		c-11.451-6.979-18.884-29.63-12-45.6c-4.181-6.47-9.527-15.155-10.319-25.44c-0.825-10.707,2.454-18.746,6-26.16
		c-8.049-20.371-1.532-46.885,7.439-61.439c2.851-4.624,6.377-9.063,9.601-13.44c3.185-4.324,7.125-8.512,9.6-13.44
		c1.425-2.838,2.394-6.233,3.601-9.359c1.197-3.105,2.481-6.271,3.6-9.36c1.172-3.238,1.712-6.813,2.64-10.32
		c1.644-6.21,4.549-12.005,4.801-20.16c-4.777-2.325-8.438-5.052-7.921-12.48c0.508-7.284,6.521-15.534,5.521-21.12
		c-0.58-3.24-3.968-3.087-5.04-6c-3.902,3.357-1.986,8.129,1.68,10.32c-10.054-2.187-16.278,6.627-25.439,8.4
		c-6.551,1.267-13.521,0.551-18.48,3.36c-1.49,0.844-2.476,2.657-4.56,2.64c-0.17-9.273,10.273-10.933,19.199-12.48
		c9.382-1.626,14.351-6.196,23.521-5.28c-2.701-7.525,5.49-15.485,1.2-24c-2.361-1.798-5.026-3.294-7.2-5.28
		c0.313,2.901,0.816,5.562,1.92,7.68c0.93,1.785,2.504,2.658,3.12,4.08c-1.736,0.735-3.602-0.637-4.561-1.44
		c-4.89-4.097-6.016-12.508-9.6-18.24c-4.575-7.318-12.527-9.457-20.64-13.2c-4.589,1.826-13.009,3.825-18,0.96
		c-3.818,2.536-8.375,2.445-12.72,3.12c-1.498,0.232-2.861,1.08-4.32,1.2c-0.836,0.069-1.776-0.365-2.64-0.24
		c-0.868,0.126-1.703,0.858-2.64,0.96c-6.188,0.674-11.308-3.683-14.88-6.48c-1.394-1.091-2.916-2.761-4.08-2.88
		c-3.111-0.318-6.644,4.559-8.16,7.2c-6.136,10.692-7.5,27.116-22.08,29.04c-1.225,11.195-1.912,21.317-3.12,32.4
		c-0.392,3.6-1.342,7.22-1.2,10.56c0.083,1.964,1.01,4.475,1.44,6.96c0.422,2.442,0.344,5.311,0.96,7.44
		c0.646,2.236,2.189,4.359,2.88,6.72c0.775,2.651,0.708,5.642,1.44,7.92c0.619,1.925,2.739,4.049,3.84,6.24
		c2.249,4.473,3.964,9.249,5.52,14.4c0.782,2.589,1.086,5.62,2.16,7.68c0.675,1.295,2.232,2.439,3.36,3.841
		c2.982,3.706,5.307,9.262,8.16,13.199c2.08,2.871,4.685,5.074,6.72,7.681c2.178,2.789,3.26,5.899,5.04,9.12
		c2.117,3.829,5.574,7.783,8.16,11.76c2.582,3.971,5.085,8.047,7.44,12.24c4.544,8.092,10.282,17.01,11.04,28.319
		c0.09,1.342-0.231,2.901,0,4.32c0.479,2.94,2.537,6.358,3.36,9.84c4.521,19.126-0.203,39.681-9.36,52.32
		c3.548,2.138,7.498,5.919,8.16,11.28c0.89,7.203-2.205,13.305-7.2,15.6c-0.318-1.78,0.772-3.122,0.96-4.8
		c0.81-7.241-3.475-11.837-7.2-15.12c-4.775,4.825-10.172,9.027-16.32,12.48c1.179,5.637,4.739,12.11,9.12,16.319
		c1.299,1.249,3.708,3.63,5.04,3.36c2.174-0.438,1.223-4.205,0.48-6c-0.931-2.249-2.546-3.075-2.88-5.28
		c0.75-0.369,1.729-0.511,2.4-0.96c1.164,0.216-0.728,0.977-0.72,1.2c0.016,0.468,3.831,4.075,4.32,4.8
		c3.051,4.52,3.495,13.24-5.52,12.24c-7.813-0.866-16.081-10.018-18.72-16.08c-5.209,13.59-8.312,44.936,10.8,43.681
		c0.688,2.546-4.44,3.168-2.88,8.159c-0.857-0.663-1.037-2.003-1.44-3.119c-4.47,2.93-12.353,3.24-18.24,2.88
		c-3.982-0.244-6.556-2.103-9.36-3.601c-6.75-3.607-13.25-6.8-18-12.72c-4.442-5.536-8.105-13.23-8.64-21.84
		c-0.67-10.787,2.278-19.958,6.24-28.801c-3.416-4.184-6.567-8.633-7.68-15.119c-2.661,2.135-9.104,7.123-13.92,3.84
		c-3.185-2.172-2.193-8.189-0.48-10.8c1.815,0.348,0.574,2.78,0.72,4.079c0.711,6.346,6.903,1.68,8.64-1.92
		c1.829-3.789,2.16-10.103,2.16-13.92c0-2.364-0.357-5.078-1.44-6.479c-2.132,5.604-7.799,13.52-15.6,10.56
		c-4.576-1.736-6.092-9.008-3.12-13.92c0.671-1.108,1.607-3.31,3.12-2.4c0.383,1.084-1.234,2.163-1.68,3.841
		c-0.737,2.771,0.372,7.421,3.12,7.92c6.273,1.14,8.261-11.352,8.64-16.561c0.814-11.183-2.934-21.798-5.76-28.08
		c-16.532-0.107-26.947-6.333-34.56-15.359c-0.807-0.313-1.912-0.329-2.4-0.96c-0.278-3.163-2.16-4.721-3.36-6.96
		c-3.356-1.361-6.869-3.796-9.36-6.48c-0.659-0.711-2.394-1.797-1.44-2.88c1.245-0.104,2.27,1.183,3.6,1.92
		c3.853,2.136,8.974,3.891,14.88,4.08c-7.505-5.858-13.873-22.533-5.76-33.12c0.628-0.82,2.62-2.311,2.64-2.64
		c0.017-0.273-4.157-5.564-4.56-6.24c-1.443-2.423-3.035-4.625-3.84-6.721c-2.836-7.389-2.773-18.46-3.12-28.56
		c-0.384-11.202,1.828-23.183,5.28-32.16c3.489-9.073,8.676-16.832,17.04-20.4c-7.858-12.118-13.87-31.008-8.88-49.2
		C21.567,101.048,30.479,87.518,48,85.72c5.168-20.091,14.467-38.288,27.6-54.24c6.304-7.657,13.514-13.167,22.32-18.72
		c4.033-2.543,8.516-5.071,13.2-7.2c7.17-3.259,22.657-9.251,28.32-0.48c23.607-5.061,40.646,6.487,53.52,15.84
		c22.734,3.436,35.964,18.335,43.44,36.96c1.055,2.627,1.469,5.735,2.88,8.4c0.817,1.543,2.331,2.819,3.36,4.08
		c2.267,2.775,4.23,5.612,5.52,9.36c0.627,1.822,0.33,4.044,1.2,6.24c0.412,1.04,2.387,2.04,3.601,3.12
		c16.675,14.842,26.228,40.349,27.6,70.56c0.233,5.145-0.201,11.156-0.72,16.08c-0.4,3.803-0.731,7.1-0.48,10.8
		c0.364,5.351-0.341,10.705-0.96,15.84c-0.992,8.227-1.871,15.437-0.24,23.04c12.13,6.693,20.686,17.215,21.601,35.04
		c0.806,15.698-6.403,27.634-13.2,36.48c-0.867,1.129-1.594,3.291-3.36,3.12C282.821,298.438,285.433,295.729,286.08,293.561z
		 M222.961,182.68c-0.008-5.432,0.119-11-1.2-15.12C219.059,171.572,217.475,180.564,222.961,182.68z M226.561,337.721
		c0.126,2.552,1.807,5.843,4.8,5.52c-0.029-2.85-1.344-7.043,0.48-8.88c-1.211-1.429-1.531-3.749-2.641-5.279
		C228.903,331.457,226.409,334.664,226.561,337.721z M249.12,337.721c-0.75,3.277-3.279,5.963-2.399,10.08
		c6.77-0.75,12.509-2.531,14.64-7.92C257.175,339.267,252.618,339.022,249.12,337.721z M218.641,441.641
		c2.886,0.926,5.147,2.512,8.399,2.4c7.263-0.248,8.183-9.254,7.681-17.28c-0.01-1.507-0.405,0.002-0.24,0.72
		c-0.792,4.089-1.845,7.916-4.08,10.561c-0.199,0.702,1.431,0.778,0.72,1.2c-0.832-0.128-2.276,0.356-2.399-0.48
		c1.688-4.121,2.59-11.708,0.24-15.84C228.401,432.041,223.831,437.151,218.641,441.641z"/>
</g>
</svg>
