<?xml version="1.0" encoding="utf-8"?>
<!-- Generator: Adobe Illustrator 15.1.0, SVG Export Plug-In . SVG Version: 6.00 Build 0)  -->
<!DOCTYPE svg PUBLIC "-//W3C//DTD SVG 1.1//EN" "http://www.w3.org/Graphics/SVG/1.1/DTD/svg11.dtd">
<svg version="1.1" id="Layer_1" xmlns="http://www.w3.org/2000/svg" xmlns:xlink="http://www.w3.org/1999/xlink" x="0px" y="0px"
	 width="300px" height="468px" viewBox="0 0 300 468" enable-background="new 0 0 300 468" xml:space="preserve">
<g>
	<path fill-rule="evenodd" clip-rule="evenodd" d="M128.666,0c0.481,0,0.96,0,1.441,0c1.836,0.324,3.482,0.535,5.281,1.44
		c1.927,0.97,2.792,3.066,4.32,3.36c0.823,0.159,2.419-0.557,3.601-0.719c19.565-2.685,33.208,5.461,44.41,12.962
		c1.76,1.178,3.802,3.017,5.521,3.601c1.607,0.546,3.359,0.388,4.801,0.72c19.081,4.403,31.521,19.633,38.169,36.248
		c1,2.501,1.372,5.812,2.881,8.642c0.696,1.308,2.445,2.233,3.601,3.6c3.466,4.11,6.123,9.321,6.48,15.844
		c12.695,9.791,20.223,22.861,25.205,39.607c4.309,14.483,7.556,31.95,5.521,50.41c-0.25,2.264-1.159,4.679-1.2,6.961
		c-0.055,2.956,0.524,5.873,0.479,8.881c-0.044,2.853-0.386,5.707-0.721,8.643c-1.006,8.843-2.109,17.231-0.479,24.965
		c11.964,6.544,20.861,16.951,21.603,34.565c0.653,15.491-6.038,27.929-12.722,36.488c-0.919,1.178-2.092,2.896-3.601,3.122
		c1.215-3.269,4-6.242,4.32-9.604c-3.734,8.723-15.349,17.979-17.282,29.047c-1.792,10.251,8.361,13.934,13.202,18.003
		c-7.263-0.661-12.394-5.527-17.044-9.602c0.911,1.745,1.878,3.457,3.122,5.042c1.165,1.485,3.201,2.531,3.359,4.32
		c-3.814-0.509-6.723-3.2-9.361-4.081c3.725,4.437,9.377,6.946,15.603,8.881c-4.378,2.077-11.286,0.467-15.362-0.72
		c-2.387,10.576-12.003,13.923-23.525,15.364c8.703,14.026,20.464,45.217,4.561,60.011c4.493,5.295,10.744,11.513,10.563,21.365
		c-0.125,6.835-4.435,12.047-11.042,12.724c-2.684,0.273-7.132,0.369-9.122-1.683c6.27-0.569,12.663-1.67,13.442-7.201
		c0.566-4.022-2.035-8.608-3.601-11.041c-0.633-0.985-1.327-2.538-1.92-2.16c-1.034,7.949-3.228,15.189-9.122,18.242
		c-6.362,3.297-12.974-1.098-16.804-5.041c-8.985,4.924-20.101-1.048-21.124-10.081c3.28,3.968,8.962,8.85,15.362,6.241
		c7.817-3.184,9.142-14.01,8.643-25.685c-2.979-1.584-6.559-2.563-10.562-3.121c0.006,1.349,4.551,2.549,3.841,3.841
		c-7.412,0.849-13.254-1.951-17.524-5.041c2.853,7.102,7.794,13.285,18.484,11.761c-2.155,1.985-5.169,2.564-8.162,2.402
		c-17.861-0.972-27.654-30.744-19.924-48.491c-5.347-7.996-10.589-16.184-10.563-28.565c0.016-6.942,2.002-12.599,4.081-17.523
		c0.726-1.718,2.099-3.817,2.161-5.042c0.075-1.531-1.263-4.129-1.682-5.76c-0.58-2.255-0.899-4.51-1.2-6.481
		c-3.898-25.634,6.489-44.061,16.564-57.852c4.229-5.79,9.414-11.302,12.723-17.764c1.626-3.176,2.859-7.271,4.32-11.042
		c1.448-3.743,3.408-7.537,4.321-11.282c0.806-3.305,1.064-6.097,1.92-8.883c1.74-5.667,4.216-10.979,4.08-18.722
		c-3.203-1.819-5.35-2.931-6.721-5.762c-4.344-8.973,5.778-21.561,4.562-27.846c-0.619-3.194-4.238-3.36-5.521-6.241
		c-1.835,2.036-3.187,6.477-1.2,8.401c-6.815-2.249-0.611-10.541,0-16.323c0.345-3.261-0.487-5.6-1.201-8.882
		c-1.104-0.879-2.729-1.689-4.081-2.64c-1.322-0.932-2.632-2.625-3.6-2.401c0.438,2.682,0.672,5.287,1.681,7.442
		c0.895,1.911,3.307,3.115,2.88,4.561c-8.405-2.931-8.845-12.569-12.723-19.444c-4.422-7.842-13.073-10.097-21.604-13.923
		c-4.465,2.059-12.989,3.689-18.004,0.96c-3.696,2.784-8.415,2.384-12.962,3.121c-1.234,0.2-2.265,1.053-3.601,1.2
		c-0.831,0.092-1.886-0.352-2.88-0.24c-1.496,0.17-2.351,1.01-3.601,0.961c-4.051-0.162-7.23-2.028-10.082-3.84
		c-2.468-1.57-6.06-5.443-8.162-5.522c-3.063-0.115-6.302,4.316-7.922,6.962c-6.644,10.854-7.765,27.725-22.325,29.525
		c-1.184,12.789-2.417,26.421-3.84,38.647c-0.199,1.708-0.92,3.701-0.96,5.282c-0.026,1.034,0.545,2.529,0.721,3.841
		c0.188,1.417,0.345,2.986,0.479,4.32c0.904,8.937,3.107,16.386,6.481,22.324c1.535,2.701,3.692,5.033,5.041,7.682
		c4.85,9.532,5.348,20.111,11.042,28.566c1.335,1.983,3.547,3.562,5.041,5.521c4.615,6.057,11.104,10.405,13.202,18.483
		c6.293,7.836,11.896,16.364,16.804,25.205c3.901,7.028,7.447,13.921,9.121,22.324c0.569,2.854,0.243,6.001,0.961,9.603
		c0.401,2.019,1.797,3.979,2.4,6.001c5.97,19.993,0.429,42.84-8.642,55.452c4.384,2.284,8.451,7.018,8.402,13.683
		c-0.044,5.883-3.392,11.257-7.202,12.481c3.46-8.223-1.132-16.308-6.24-19.683c-4.931,4.911-10.75,8.935-16.564,12.962
		c0.986,4.526,3.116,8.433,5.521,11.762c2.308,3.195,5.039,7.005,9.603,7.922c2.494-4.308-2.025-8.543-2.641-11.282
		c3.511,2.595,8.481,5.811,7.442,12.242c-0.549,3.396-3.971,5.02-7.442,4.561c-8.939-1.178-15.287-10.1-18.964-16.322
		c-4.717,14.002-8.887,44.839,11.042,44.889c-3.815,6.243-17.938,9.408-27.365,6.001c-1.9-0.685-3.819-2.078-6.001-3.119
		c-6.295-3.007-12.097-7.199-16.083-12.003c-10.614-12.789-11.653-34.023-2.641-50.65c-3.308-4.453-6.83-8.694-7.681-15.603
		c-2.452,1.62-6.884,5.891-11.763,5.04c-4.682-0.815-5.612-7.848-2.4-11.282c0.597,2.247-0.726,6.073,1.681,6.961
		c6.969,0.208,8.957-7.574,9.361-14.882c0.226-4.049,0.56-8.748-1.68-11.044c-2.127,4.559-4.03,9.22-8.642,10.803
		c-7.523,2.584-12.202-3.375-11.282-9.842c0.384-2.702,2.214-5.954,4.801-6.241c-3.045,2.519-3.328,11.102,0.96,12.002
		c4.486,0.942,5.841-3.517,6.961-6.96c3.919-12.056,1.398-30.35-4.081-37.93c-20.57-0.551-31.819-10.429-39.848-23.523
		c-2.395-0.775-4.509-2.275-6.481-3.841c-1.801-1.43-4.434-3.034-4.561-5.521c4.722,3.76,10.828,6.136,18.964,6.481
		c-4.233-4.842-10.974-12.589-10.082-22.806c0.525-6.019,3.374-9.789,6.721-13.441C8.065,252,4.321,240.655,4.321,225.647
		c0-8.061-0.107-16.476,0.96-23.766c2.559-17.483,9.632-30.864,21.125-36.727c-8.085-11.908-13.673-30.695-8.882-48.731
		c4.181-15.737,13.099-29.277,30.726-30.965c5.48-21.782,15.488-39.978,28.085-54.731c3.296-3.86,6.361-7.34,10.322-10.322
		C98.263,11.667,111.866,2.84,128.666,0z M223.246,182.677c0.067-5.907-0.11-11.573-1.2-16.323
		C218.784,170.517,217.131,180.473,223.246,182.677z M248.932,337.029c-0.749,3.571-2.985,5.655-2.401,10.562
		c7.02-0.741,13.027-2.495,15.123-8.162C257.715,338.326,252.482,338.518,248.932,337.029z M217.964,441.209
		c4.958,2.275,12.039,4.415,15.123-0.72c2.505-4.166,2.343-11.482,1.201-17.282c0.172,6.733-1.712,12.689-5.28,14.883
		c1.86-4.245,2.593-12.566-0.241-16.325C228.403,431.483,223.723,436.886,217.964,441.209z"/>
	<path fill-rule="evenodd" clip-rule="evenodd" d="M217.726,158.192c-2.433-1.384-5.683-3.979-10.083-2.64
		c-4.853,1.476-8.959,6.641-15.604,8.402c-8.239,2.184-19.797,0.002-22.805,6.481c-0.858-11.875,16.536-10.115,26.886-13.683
		c4.467-1.54,7.487-4.161,13.202-3.601C213.141,153.526,216.146,156.247,217.726,158.192z"/>
	<path fill-rule="evenodd" clip-rule="evenodd" d="M138.989,169.474c-1.541-6.396-14.041-4.779-22.325-6.481
		c-8.76-1.8-12.264-6.859-21.604-5.76c-4.084,0.48-7.38,3.481-8.403,6.961c-0.363-1.614,1.099-4.038,2.161-5.281
		c7.128-8.349,22.476-3.17,33.127-1.201C130.705,159.333,139.106,161.378,138.989,169.474z"/>
</g>
</svg>
